<svg width="210mm" height="210mm" version="1.1" viewBox="0 0 210 210" xmlns="http://www.w3.org/2000/svg" xmlns:cc="http://creativecommons.org/ns#" xmlns:dc="http://purl.org/dc/elements/1.1/" xmlns:rdf="http://www.w3.org/1999/02/22-rdf-syntax-ns#">
 <metadata>
  <rdf:RDF>
   <cc:Work rdf:about="">
    <dc:format>image/svg+xml</dc:format>
    <dc:type rdf:resource="http://purl.org/dc/dcmitype/StillImage"/>
    <dc:title/>
   </cc:Work>
  </rdf:RDF>
 </metadata>
 <g transform="translate(0,-87)">
  <path d="m108.02 139.36a34.601 26.692 83.041 0 0-2.6656 0.15333 34.601 26.692 83.041 0 0-16.482 10.793 37.566 35.109 83.041 0 0-21.3-4.6328 37.566 35.109 83.041 0 0-29.247 26.45 21.37 26.072 84.567 0 0-24.018 6.229 21.37 26.072 84.567 0 0-0.56104 30.279 21.37 26.072 84.567 0 0 15.394 5.8466 29.194 32.263 57.747 0 0 6.4649 12.41 29.194 32.263 57.747 0 0 40.887 2.8694 37.566 43.498 83.041 0 0 39.983 14.528 37.566 43.498 83.041 0 0 27.38-12.838 30.755 24.491 25.947 0 0 3.7191 2.1046 30.755 24.491 25.947 0 0 38.37-8.5649 30.755 24.491 25.947 0 0 1.8092-11.711 21.255 42.839 83.041 0 0 15.774-19.337 21.255 42.839 83.041 0 0-25.118-15.898 29.397 29.823 83.041 0 0-0.17416-4.0282 29.397 29.823 83.041 0 0-33.165-25.566 29.397 29.823 83.041 0 0-14.464 5.8626 34.601 26.692 83.041 0 0-22.587-14.95z" fill="#fff" fill-rule="evenodd" stroke-width=".19636"/>
 </g>
</svg>
