<svg width="210mm" height="210mm" version="1.1" viewBox="0 0 210 210" xmlns="http://www.w3.org/2000/svg" xmlns:cc="http://creativecommons.org/ns#" xmlns:dc="http://purl.org/dc/elements/1.1/" xmlns:rdf="http://www.w3.org/1999/02/22-rdf-syntax-ns#">
 <metadata>
  <rdf:RDF>
   <cc:Work rdf:about="">
    <dc:format>image/svg+xml</dc:format>
    <dc:type rdf:resource="http://purl.org/dc/dcmitype/StillImage"/>
    <dc:title/>
   </cc:Work>
  </rdf:RDF>
 </metadata>
 <g transform="translate(0,-87)">
  <path d="m52.151 141.24a33.397 24.933 0 0 0-33.397 24.933 33.397 24.933 0 0 0 10.196 17.897 22.47 36.573 82.101 0 0-24.924 26.099 22.47 36.573 82.101 0 0 40.137 16.537 22.47 36.573 82.101 0 0 5.086-1.0397 56.517 38.41 0 0 0 38.868 10.589 56.517 38.41 0 0 0 23.4-3.4986 34.99 18.674 34.516 0 0 15.509 7.9089 34.99 18.674 34.516 0 0 25.845-12.979 34.99 18.674 34.516 0 0-1.7721-5.3035 38.75 22.982 0 0 0 10.204 0.83795 38.75 22.982 0 0 0 38.75-22.982 38.75 22.982 0 0 0-6.7444-12.916 26.464 37.812 70.749 0 0 6.5495-37.091 26.464 37.812 70.749 0 0-51.053 1.3764 26.464 37.812 70.749 0 0-2.833 2.0914 30.25 41.365 82.962 0 0-55.229-4.0836 30.25 41.365 82.962 0 0-8.4769 5.8337 33.397 24.933 0 0 0-30.114-14.209z" fill="#fff" fill-rule="evenodd" stroke-width=".22632"/>
 </g>
</svg>
