<svg width="210mm" height="210mm" version="1.1" viewBox="0 0 210 210" xmlns="http://www.w3.org/2000/svg" xmlns:cc="http://creativecommons.org/ns#" xmlns:dc="http://purl.org/dc/elements/1.1/" xmlns:rdf="http://www.w3.org/1999/02/22-rdf-syntax-ns#">
 <metadata>
  <rdf:RDF>
   <cc:Work rdf:about="">
    <dc:format>image/svg+xml</dc:format>
    <dc:type rdf:resource="http://purl.org/dc/dcmitype/StillImage"/>
    <dc:title/>
   </cc:Work>
  </rdf:RDF>
 </metadata>
 <g transform="translate(0,-87)">
  <path d="m59.437 138.82a25.56 32.936 62.003 0 0-18.177 20.543 22.095 32.735 77.658 0 0-31.424 22.852 22.095 32.735 77.658 0 0 10.55 18.661 25.723 35.159 54.955 0 0-2.0947 2.8317 25.723 35.159 54.955 0 0 7.7898 36.946 25.723 35.159 54.955 0 0 30.581-4.7754 32.663 48.038 62.003 0 0 22.752-5.0537 32.663 48.038 86.578 0 0 8.5237 0.466 25.56 32.936 86.578 0 0 33.435 18.591 25.56 32.936 86.578 0 0 25.074-11.122 32.735 22.095 12.233 0 0 38.081-7.7135 32.735 22.095 12.233 0 0-1.833-21.359 25.723 35.159 79.53 0 0 3.0825-1.7036 25.723 35.159 79.53 0 0 8.2814-36.84 25.723 35.159 79.53 0 0-29.796-8.3752 32.663 48.038 86.578 0 0-9.5156-3.1159 32.663 48.038 62.003 0 0-2.6051-9.9857 32.663 48.038 62.003 0 0-54.566-7.8464 25.56 32.936 62.003 0 0-38.138-3.0016z" fill="#fff" fill-rule="evenodd" stroke-width=".19241"/>
 </g>
</svg>
