<svg width="210mm" height="210mm" version="1.1" viewBox="0 0 210 210" xmlns="http://www.w3.org/2000/svg" xmlns:cc="http://creativecommons.org/ns#" xmlns:dc="http://purl.org/dc/elements/1.1/" xmlns:rdf="http://www.w3.org/1999/02/22-rdf-syntax-ns#">
 <metadata>
  <rdf:RDF>
   <cc:Work rdf:about="">
    <dc:format>image/svg+xml</dc:format>
    <dc:type rdf:resource="http://purl.org/dc/dcmitype/StillImage"/>
    <dc:title/>
   </cc:Work>
  </rdf:RDF>
 </metadata>
 <g transform="translate(0,-87)">
  <path d="m130.85 133.07a31.97 38.915 0 0 0-24.504 13.929 52.099 42.251 0 0 0-18.517-2.8104 52.099 42.251 0 0 0-27.289 6.297 34.502 19.203 46.072 0 0-5.8537-3.1382 34.502 19.203 46.072 0 0-24.447 13.316 34.502 19.203 46.072 0 0 2.6851 9.3674 33.077 38.358 74.324 0 0-6.8461 3.5266 33.077 38.358 74.324 0 0-11.35 46.928 33.077 38.358 74.324 0 0 48.196 8.7735 52.099 42.251 0 0 0 45.428 21.668 52.099 42.251 0 0 0 34.416-10.601 36.277 27.969 26.414 0 0 4.1151 2.8571 36.277 27.969 26.414 0 0 46.863-4.3334 36.277 27.969 26.414 0 0-4.7906-33.408 35.72 33.063 0 0 0 12.375-24.971 35.72 33.063 0 0 0-35.72-33.063 35.72 33.063 0 0 0-9.2721 1.1458 31.97 38.915 0 0 0-25.489-15.484z" fill="#fff" fill-rule="evenodd" stroke-width=".2279"/>
 </g>
</svg>
