<svg width="210mm" height="210mm" version="1.1" viewBox="0 0 210 210" xmlns="http://www.w3.org/2000/svg" xmlns:cc="http://creativecommons.org/ns#" xmlns:dc="http://purl.org/dc/elements/1.1/" xmlns:rdf="http://www.w3.org/1999/02/22-rdf-syntax-ns#">
 <metadata>
  <rdf:RDF>
   <cc:Work rdf:about="">
    <dc:format>image/svg+xml</dc:format>
    <dc:type rdf:resource="http://purl.org/dc/dcmitype/StillImage"/>
    <dc:title/>
   </cc:Work>
  </rdf:RDF>
 </metadata>
 <g transform="translate(0,-87)">
  <path d="m105 94.985s0.13667 14.689 2.6304 31.735c2.4937 17.046 3.4638 40.329 12.892 49.758 9.4281 9.4281 32.712 10.398 49.757 12.892 17.046 2.4937 31.735 2.6304 31.735 2.6304s-14.689 0.13667-31.735 2.6304c-17.046 2.4937-40.329 3.4638-49.757 12.892-9.4282 9.4281-10.398 32.712-12.892 49.757-2.4937 17.046-2.6304 31.735-2.6304 31.735s-0.13667-14.689-2.6304-31.735c-2.4937-17.046-3.4638-40.329-12.892-49.757-9.4281-9.4282-32.712-10.398-49.757-12.892-17.046-2.4937-31.735-2.6304-31.735-2.6304s14.689-0.13668 31.735-2.6304c17.046-2.4937 40.329-3.4639 49.757-12.892 9.4282-9.4282 10.398-32.712 12.892-49.758 2.4937-17.046 2.6304-31.735 2.6304-31.735z" fill="#fff" stroke-width=".72601"/>
 </g>
</svg>
