<svg width="210mm" height="210mm" version="1.1" viewBox="0 0 210 210" xmlns="http://www.w3.org/2000/svg" xmlns:cc="http://creativecommons.org/ns#" xmlns:dc="http://purl.org/dc/elements/1.1/" xmlns:rdf="http://www.w3.org/1999/02/22-rdf-syntax-ns#">
 <metadata>
  <rdf:RDF>
   <cc:Work rdf:about="">
    <dc:format>image/svg+xml</dc:format>
    <dc:type rdf:resource="http://purl.org/dc/dcmitype/StillImage"/>
    <dc:title/>
   </cc:Work>
  </rdf:RDF>
 </metadata>
 <g transform="translate(0,-87)">
  <path d="m105 93.655c-0.57618 0-1.9295 73.414-2.5636 91.519-3.2851-1.2933-6.973-4.563-10.074-6.8726-3.9417-2.9356-6.9325-5.8715-6.9325-5.8715s2.9352 2.9908 5.8708 6.9325c2.3097 3.1013 5.5794 6.7897 6.8726 10.075-18.105 0.63416-91.518 1.9874-91.518 2.5636 0 0.57618 73.413 1.9295 91.518 2.5637-1.2933 3.2851-4.563 6.973-6.8726 10.074-2.9356 3.9417-5.8708 6.9325-5.8708 6.9325s2.9908-2.9352 6.9325-5.8708c3.1012-2.3096 6.789-5.5794 10.074-6.8726 0.63419 18.105 1.9875 91.518 2.5636 91.518s1.9295-73.413 2.5637-91.518c3.2852 1.2932 6.9736 4.5629 10.075 6.8726 3.9417 2.9356 6.9325 5.8708 6.9325 5.8708s-2.936-2.9908-5.8716-6.9325c-2.3096-3.1012-5.5794-6.7891-6.8726-10.074 18.105-0.63419 91.519-1.9875 91.519-2.5637 0-0.5762-73.414-1.9295-91.519-2.5636 1.2932-3.2852 4.5629-6.9736 6.8726-10.075 2.9356-3.9417 5.8716-6.9325 5.8716-6.9325s-2.9908 2.9359-6.9325 5.8715c-3.1013 2.3097-6.7898 5.5794-10.075 6.8726-0.63419-18.105-1.9875-91.519-2.5637-91.519z" fill="#fff" stroke-width=".79513"/>
 </g>
</svg>
