<?xml version="1.0" encoding="UTF-8" standalone="no"?>
<!-- Created with Inkscape (http://www.inkscape.org/) -->

<svg
   xmlns:dc="http://purl.org/dc/elements/1.1/"
   xmlns:cc="http://creativecommons.org/ns#"
   xmlns:rdf="http://www.w3.org/1999/02/22-rdf-syntax-ns#"
   xmlns:svg="http://www.w3.org/2000/svg"
   xmlns="http://www.w3.org/2000/svg"
   xmlns:sodipodi="http://sodipodi.sourceforge.net/DTD/sodipodi-0.dtd"
   xmlns:inkscape="http://www.inkscape.org/namespaces/inkscape"
   width="210mm"
   height="210mm"
   viewBox="0 0 210 210"
   version="1.1"
   id="svg846"
   inkscape:version="0.92.3 (2405546, 2018-03-11)"
   sodipodi:docname="4.svg"
   inkscape:export-filename="C:\Users\aliid\Documents\Star\Star\png\4.png"
   inkscape:export-xdpi="96"
   inkscape:export-ydpi="96">
  <defs
     id="defs840" />
  <sodipodi:namedview
     id="base"
     pagecolor="#ffffff"
     bordercolor="#666666"
     borderopacity="1.0"
     inkscape:pageopacity="0.0"
     inkscape:pageshadow="2"
     inkscape:zoom="0.49497475"
     inkscape:cx="353.79973"
     inkscape:cy="423.86642"
     inkscape:document-units="mm"
     inkscape:current-layer="layer1"
     showgrid="false"
     inkscape:pagecheckerboard="true"
     inkscape:window-width="1366"
     inkscape:window-height="705"
     inkscape:window-x="-8"
     inkscape:window-y="-8"
     inkscape:window-maximized="1" />
  <metadata
     id="metadata843">
    <rdf:RDF>
      <cc:Work
         rdf:about="">
        <dc:format>image/svg+xml</dc:format>
        <dc:type
           rdf:resource="http://purl.org/dc/dcmitype/StillImage" />
        <dc:title></dc:title>
      </cc:Work>
    </rdf:RDF>
  </metadata>
  <g
     inkscape:label="Layer 1"
     inkscape:groupmode="layer"
     id="layer1"
     transform="translate(0,-87)">
    <path
       style="opacity:1;fill:#ffffff;fill-opacity:1;stroke-width:0.37520263"
       d="m 104.99961,97.635778 c -0.0285,0 -0.0214,0.188174 7.9e-4,0.465339 0.0214,-0.277272 0.0285,-0.465339 -7.9e-4,-0.465339 z m 7.9e-4,0.465339 c -0.32539,4.267493 -5.883618,39.986063 -7.9e-4,65.255223 5.88294,-25.26902 0.3261,-60.98741 7.9e-4,-65.255223 z m -7.9e-4,65.255223 c -1.54459,6.63485 -3.87881,12.54324 -7.304684,16.97057 -2.824574,-0.96357 -5.697795,-2.40934 -8.557116,-4.1888 1.779529,2.85947 3.225156,5.73247 4.188801,8.55712 -4.427476,3.42573 -10.336557,5.76016 -16.971338,7.30476 6.634888,1.54459 12.543862,3.87967 16.971338,7.30543 -0.963645,2.82469 -2.409308,5.69776 -4.188801,8.55712 2.859357,-1.77946 5.732507,-3.22516 8.557116,-4.1888 3.425734,4.4274 5.760124,10.33586 7.304684,16.97061 1.5471,-6.64516 3.88705,-12.5622 7.32162,-16.99185 2.70996,0.9063 5.46996,2.24462 8.22297,3.892 -1.64831,-2.75451 -2.98645,-5.516 -3.89275,-8.22735 4.30185,-3.35029 10.00499,-5.70578 16.41731,-7.3172 -6.40217,-1.60882 -12.09729,-3.95921 -16.39678,-7.30105 0.96364,-2.82586 2.40998,-5.70011 4.19026,-8.56079 -2.85932,1.77946 -5.73254,3.22519 -8.55712,4.1888 -3.42587,-4.4274 -5.7608,-10.33572 -7.30551,-16.97057 z m 15.86263,12.78177 c 17.24538,-10.73231 33.94193,-33.57855 36.1323,-36.13227 -2.55375,2.19031 -25.39999,18.88703 -36.1323,36.13227 z m 36.1323,-36.13227 c 0.16644,-0.14291 0.27478,-0.24412 0.25946,-0.25945 -0.0143,-0.0143 -0.11654,0.0927 -0.25946,0.25945 z m -23.92578,51.99415 c 26.92823,6.76696 66.29506,0.45693 66.29506,0 0,-0.45693 -39.36683,-6.767 -66.29506,0 z m -12.5246,15.54454 c 11.16479,18.65801 36.4568,36.96277 36.7098,36.70977 0.25304,-0.25304 -18.05172,-25.54501 -36.7098,-36.70977 z m -15.54458,13.09985 c -5.882798,25.26913 -0.32467,60.98695 8.2e-4,65.25448 0.32538,-4.26774 5.88201,-39.98546 -8.2e-4,-65.25448 z m 8.2e-4,65.25448 c -0.0214,0.27727 -0.0285,0.46534 -8.2e-4,0.46534 0.0285,0 0.0214,-0.18818 8.2e-4,-0.46534 z M 89.13781,207.86258 c -17.248396,10.7343 -33.948254,33.58614 -36.133783,36.13305 2.547658,-2.18614 25.399708,-18.885 36.133783,-36.13305 z m -36.133783,36.13305 c -0.165722,0.1422 -0.273352,0.24341 -0.258027,0.25874 0.01426,0.0143 0.115827,-0.093 0.258027,-0.25874 z m 23.351246,-51.99564 c -25.260288,-5.88055 -60.962179,-0.32895 -65.250092,0 4.287913,0.32895 39.989804,5.88058 65.250092,0 z m -65.250092,0 c -0.280123,-0.0214 -0.46901,-0.0285 -0.46901,0 0,0.0285 0.188887,0.0214 0.46901,0 z M 89.13781,176.13815 C 78.405445,158.89287 55.55924,142.19622 53.005488,140.00584 c 2.190377,2.55376 18.886955,25.4 36.132322,36.13231 z M 53.005488,140.00584 c -0.142913,-0.16643 -0.244128,-0.27477 -0.259452,-0.25945 -0.01426,0.0143 0.09266,0.11654 0.259452,0.25945 z"
       id="path830"
       inkscape:connector-curvature="0" />
  </g>
</svg>
